<?xml version="1.0" encoding="UTF-8" standalone="no"?>
<svg
   xmlns:dc="http://purl.org/dc/elements/1.1/"
   xmlns:cc="http://creativecommons.org/ns#"
   xmlns:rdf="http://www.w3.org/1999/02/22-rdf-syntax-ns#"
   xmlns:svg="http://www.w3.org/2000/svg"
   xmlns="http://www.w3.org/2000/svg"
   viewBox="0 0 703.02667 259.06668"
   height="259.06668"
   width="703.02667"
   xml:space="preserve"
   id="svg2"
   version="1.1"><metadata
     id="metadata8"><rdf:RDF><cc:Work
         rdf:about=""><dc:format>image/svg+xml</dc:format><dc:type
           rdf:resource="http://purl.org/dc/dcmitype/StillImage" /></cc:Work></rdf:RDF></metadata><defs
     id="defs6" /><g
     transform="matrix(1.3333333,0,0,-1.3333333,0,259.06667)"
     id="g10"><g
       transform="scale(0.1)"
       id="g12"><path
         id="path14"
         style="fill:#ffffff;fill-opacity:1;fill-rule:nonzero;stroke:none"
         d="m 402.523,1933.3 c 0,0 -258.203,-260.46 -271.796,-278.58 C 117.145,1636.6 -43.6719,1435.02 19.75,1122.46 83.168,809.898 345.898,615.109 583.715,594.719 821.539,574.328 968.754,619.648 1154.48,787.238 l -18.12,20.391 c 0,0 -140.422,-131.359 -344.27,-135.891 -203.844,-4.539 -428.07,151.75 -477.895,203.84 117.774,117.774 339.735,335.212 339.735,335.212 l 194.785,-203.85 4.527,-287.651 c 0,0 58.891,2.281 88.336,15.859 -2.265,92.872 0,389.572 0,389.572 l -187.988,181.19 412.22,419.02 c 0,0 -2.27,36.24 -18.12,22.65 -15.86,-13.59 -849.354,-853.889 -849.354,-853.889 0,0 -280.8516,260.469 -192.52,631.929 0,0 27.18,90.59 88.329,163.07 61.152,65.68 226.5,226.5 226.5,226.5 0,0 6.796,21.11 -18.122,18.11" /><path
         id="path16"
         style="fill:none;stroke:#211c1d;stroke-width:10;stroke-linecap:butt;stroke-linejoin:miter;stroke-miterlimit:10;stroke-dasharray:none;stroke-opacity:1"
         d="m 402.523,1933.3 c 0,0 -258.203,-260.46 -271.796,-278.58 C 117.145,1636.6 -43.6719,1435.02 19.75,1122.46 83.168,809.898 345.898,615.109 583.715,594.719 821.539,574.328 968.754,619.648 1154.48,787.238 l -18.12,20.391 c 0,0 -140.422,-131.359 -344.27,-135.891 -203.844,-4.539 -428.07,151.75 -477.895,203.84 117.774,117.774 339.735,335.212 339.735,335.212 l 194.785,-203.85 4.527,-287.651 c 0,0 58.891,2.281 88.336,15.859 -2.265,92.872 0,389.572 0,389.572 l -187.988,181.19 412.22,419.02 c 0,0 -2.27,36.24 -18.12,22.65 -15.86,-13.59 -849.354,-853.889 -849.354,-853.889 0,0 -280.8516,260.469 -192.52,631.929 0,0 27.18,90.59 88.329,163.07 61.152,65.68 226.5,226.5 226.5,226.5 0,0 6.796,21.11 -18.122,18.11 z" /><path
         id="path18"
         style="fill:#ffffff;fill-opacity:1;fill-rule:nonzero;stroke:none"
         d="M 2212.2,988.824 V 741.949 l -27.18,-31.711 -124.58,117.782 v 267.26 l 13.59,11.33 h 18.13 z M 1732.04,730.621 1704.85,710.238 1580.28,828.02 v 267.26 l 13.59,11.33 h 18.12 L 1732.04,988.824 Z M 2323.1,1779.29 c -36.32,-9.06 -95.04,-47.56 -126.75,-106.45 -31.71,-58.9 4.53,-106.46 4.53,-106.46 0,0 52.09,54.37 74.74,79.28 -28.96,24.95 -31.71,70.21 2.27,61.15 63.42,-20.38 43.03,-45.3 38.5,-67.95 -4.52,-22.65 -167.61,-174.4 -251.4,-285.38 -83.8,-110.98 0,-219.7 0,-219.7 l -97.4,-88.33 V 757.801 l -47.56,-49.821 -106.45,92.848 v 305.782 l -133.63,126.83 -187.99,-187.99 V 755.531 l -52.1,-47.551 -106.45,97.379 v 595.681 l -99.66,104.19 -147.22,-144.95 18.11,-15.86 47.57,40.77 101.92,-99.66 -4.53,-591.139 108.72,-104.219 135.89,126.859 131.38,-126.859 101.91,99.68 106.46,-99.68 135.89,129.117 138.17,-129.117 181.19,194.797 2.27,314.841 c 0,0 -31.71,36.24 -95.13,97.39 -110.98,108.71 -43.03,203.84 -33.98,226.5 9.07,22.64 219.7,221.96 219.7,221.96 0,0 27.18,31.71 31.71,49.82 18.12,88.34 -54.36,92.86 -90.68,83.81" /><path
         id="path20"
         style="fill:none;stroke:#211c1d;stroke-width:10;stroke-linecap:butt;stroke-linejoin:miter;stroke-miterlimit:10;stroke-dasharray:none;stroke-opacity:1"
         d="M 2212.2,988.824 V 741.949 l -27.18,-31.711 -124.58,117.782 v 267.26 l 13.59,11.33 h 18.13 z M 1732.04,730.621 1704.85,710.238 1580.28,828.02 v 267.26 l 13.59,11.33 h 18.12 L 1732.04,988.824 Z M 2323.1,1779.29 c -36.32,-9.06 -95.04,-47.56 -126.75,-106.45 -31.71,-58.9 4.53,-106.46 4.53,-106.46 0,0 52.09,54.37 74.74,79.28 -28.96,24.95 -31.71,70.21 2.27,61.15 63.42,-20.38 43.03,-45.3 38.5,-67.95 -4.52,-22.65 -167.61,-174.4 -251.4,-285.38 -83.8,-110.98 0,-219.7 0,-219.7 l -97.4,-88.33 V 757.801 l -47.56,-49.821 -106.45,92.848 v 305.782 l -133.63,126.83 -187.99,-187.99 V 755.531 l -52.1,-47.551 -106.45,97.379 v 595.681 l -99.66,104.19 -147.22,-144.95 18.11,-15.86 47.57,40.77 101.92,-99.66 -4.53,-591.139 108.72,-104.219 135.89,126.859 131.38,-126.859 101.91,99.68 106.46,-99.68 135.89,129.117 138.17,-129.117 181.19,194.797 2.27,314.841 c 0,0 -31.71,36.24 -95.13,97.39 -110.98,108.71 -43.03,203.84 -33.98,226.5 9.07,22.64 219.7,221.96 219.7,221.96 0,0 27.18,31.71 31.71,49.82 18.12,88.34 -54.36,92.86 -90.68,83.81 z" /><path
         id="path22"
         style="fill:#ffffff;fill-opacity:1;fill-rule:nonzero;stroke:none"
         d="m 2357.16,1573.18 -86.07,-86.07 c 0,0 183.46,-156.28 375.81,0 239.22,194.38 337.65,197.05 512.05,58.89 l 101.91,96.33 c 0,0 -115.49,134.69 -362.38,69.01 -45.31,-15.86 -132.5,-86.07 -132.5,-86.07 0,0 -170.99,-208.37 -408.82,-52.09" /><path
         id="path24"
         style="fill:none;stroke:#211c1d;stroke-width:10;stroke-linecap:butt;stroke-linejoin:miter;stroke-miterlimit:10;stroke-dasharray:none;stroke-opacity:1"
         d="m 2357.16,1573.18 -86.07,-86.07 c 0,0 183.46,-156.28 375.81,0 239.22,194.38 337.65,197.05 512.05,58.89 l 101.91,96.33 c 0,0 -115.49,134.69 -362.38,69.01 -45.31,-15.86 -132.5,-86.07 -132.5,-86.07 0,0 -170.99,-208.37 -408.82,-52.09 z" /><path
         id="path26"
         style="fill:#ffffff;fill-opacity:1;fill-rule:nonzero;stroke:none"
         d="m 3710.29,730.621 -27.18,-16.973 -124.58,117.782 v 267.27 l 13.59,11.32 h 18.13 L 3710.29,992.238 Z M 2427.37,908.422 v 182.328 l 27.18,19.27 90.59,-96.28 z M 3661.76,1240.23 3471.51,1049.97 V 755.531 l -54.36,-45.293 -92.87,88.332 v 357.86 l 49.84,2.27 72.47,81.53 h -122.31 l -2.26,21.66 83.81,87.06 c 0,0 165.34,-215.17 328.41,13.59 11.32,18.12 -22.65,22.65 -22.65,22.65 0,0 -101.92,-83.81 -226.5,90.6 -147.21,-154.02 -308.02,-314.83 -308.02,-314.83 l 49.82,-4.53 4.53,-394.102 -49.82,-52.09 -101.94,92.864 v 328.418 l -108.71,106.45 -101.92,-106.45 -103.05,108.71 -116.64,-117.77 -120.05,106.45 -187.99,-183.46 V 719.289 l 133.64,-129.117 192.52,188.008 -20.56,18.121 -85.9,-86.063 -129.11,113.242 -2.26,38.508 249.14,244.622 c 0,0 11.33,9.06 18.13,0 6.8,-9.07 81.54,-88.34 81.54,-88.34 V 741.949 l -56.62,-56.629 104.18,-95.148 99.66,99.68 -52.1,54.347 v 346.551 c 0,0 13.59,22.65 24.92,15.86 11.32,-6.8 90.6,-88.34 90.6,-88.34 V 696.648 l 110.97,-106.476 133.64,129.117 V 685.32 l 104.19,-95.148 133.63,129.117 133.63,-129.117 192.52,185.75 v 330.688 l -135.9,133.62" /><path
         id="path28"
         style="fill:none;stroke:#211c1d;stroke-width:10;stroke-linecap:butt;stroke-linejoin:miter;stroke-miterlimit:10;stroke-dasharray:none;stroke-opacity:1"
         d="m 3710.29,730.621 -27.18,-16.973 -124.58,117.782 v 267.27 l 13.59,11.32 h 18.13 L 3710.29,992.238 Z M 2427.37,908.422 v 182.328 l 27.18,19.27 90.59,-96.28 z M 3661.76,1240.23 3471.51,1049.97 V 755.531 l -54.36,-45.293 -92.87,88.332 v 357.86 l 49.84,2.27 72.47,81.53 h -122.31 l -2.26,21.66 83.81,87.06 c 0,0 165.34,-215.17 328.41,13.59 11.32,18.12 -22.65,22.65 -22.65,22.65 0,0 -101.92,-83.81 -226.5,90.6 -147.21,-154.02 -308.02,-314.83 -308.02,-314.83 l 49.82,-4.53 4.53,-394.102 -49.82,-52.09 -101.94,92.864 v 328.418 l -108.71,106.45 -101.92,-106.45 -103.05,108.71 -116.64,-117.77 -120.05,106.45 -187.99,-183.46 V 719.289 l 133.64,-129.117 192.52,188.008 -20.56,18.121 -85.9,-86.063 -129.11,113.242 -2.26,38.508 249.14,244.622 c 0,0 11.33,9.06 18.13,0 6.8,-9.07 81.54,-88.34 81.54,-88.34 V 741.949 l -56.62,-56.629 104.18,-95.148 99.66,99.68 -52.1,54.347 v 346.551 c 0,0 13.59,22.65 24.92,15.86 11.32,-6.8 90.6,-88.34 90.6,-88.34 V 696.648 l 110.97,-106.476 133.64,129.117 V 685.32 l 104.19,-95.148 133.63,129.117 133.63,-129.117 192.52,185.75 v 330.688 z" /><path
         id="path30"
         style="fill:#ffffff;fill-opacity:1;fill-rule:nonzero;stroke:none"
         d="M 3838.41,1505.23 3738.75,1403.31 3854.26,1281 V 694.391 l 106.46,-104.219 149.48,140.449 -18.12,15.859 -45.29,-36.242 -97.4,88.332 -2.27,604.74 -108.71,101.92" /><path
         id="path32"
         style="fill:none;stroke:#211c1d;stroke-width:10;stroke-linecap:butt;stroke-linejoin:miter;stroke-miterlimit:10;stroke-dasharray:none;stroke-opacity:1"
         d="M 3838.41,1505.23 3738.75,1403.31 3854.26,1281 V 694.391 l 106.46,-104.219 149.48,140.449 -18.12,15.859 -45.29,-36.242 -97.4,88.332 -2.27,604.74 z" /><path
         id="path34"
         style="fill:#ffffff;fill-opacity:1;fill-rule:nonzero;stroke:none"
         d="m 4128.31,1743.05 851.62,-851.62 c 0,0 142.68,133.64 176.66,292.18 33.97,158.55 54.35,183.46 0,371.45 -25.6,69.71 -90.59,151.62 -113.25,174.34 -22.65,22.71 -187.99,181.25 -187.99,181.25 l 20.39,24.92 c 0,0 246.88,-249.14 269.53,-283.12 22.65,-33.98 126.83,-178.93 122.3,-366.92 -4.53,-187.99 -49.83,-326.143 -133.63,-423.542 -83.8,-97.398 -228.75,-319.359 -695.33,-255.937 15.85,20.379 58.88,67.949 58.88,67.949 0,0 253.68,-2.262 459.79,197.051 -88.34,86.062 -151.76,151.749 -151.76,151.749 l -747.43,-740.64 -27.18,24.918 745.17,740.622 -151.76,156.29 -199.31,-194.78 -2.27,-260.472 -104.18,-101.918 c 0,0 -133.63,70.211 -194.79,131.36 11.33,13.59 20.4,27.179 20.4,27.179 0,0 120.03,-101.91 187.98,-106.437 4.53,95.117 0,421.268 0,421.268 l 185.73,185.72 -407.68,414.49 c 0,0 -6.81,22.65 18.11,22.65" /><path
         id="path36"
         style="fill:none;stroke:#211c1d;stroke-width:10;stroke-linecap:butt;stroke-linejoin:miter;stroke-miterlimit:10;stroke-dasharray:none;stroke-opacity:1"
         d="m 4128.31,1743.05 851.62,-851.62 c 0,0 142.68,133.64 176.66,292.18 33.97,158.55 54.35,183.46 0,371.45 -25.6,69.71 -90.59,151.62 -113.25,174.34 -22.65,22.71 -187.99,181.25 -187.99,181.25 l 20.39,24.92 c 0,0 246.88,-249.14 269.53,-283.12 22.65,-33.98 126.83,-178.93 122.3,-366.92 -4.53,-187.99 -49.83,-326.143 -133.63,-423.542 -83.8,-97.398 -228.75,-319.359 -695.33,-255.937 15.85,20.379 58.88,67.949 58.88,67.949 0,0 253.68,-2.262 459.79,197.051 -88.34,86.062 -151.76,151.749 -151.76,151.749 l -747.43,-740.64 -27.18,24.918 745.17,740.622 -151.76,156.29 -199.31,-194.78 -2.27,-260.472 -104.18,-101.918 c 0,0 -133.63,70.211 -194.79,131.36 11.33,13.59 20.4,27.179 20.4,27.179 0,0 120.03,-101.91 187.98,-106.437 4.53,95.117 0,421.268 0,421.268 l 185.73,185.72 -407.68,414.49 c 0,0 -6.81,22.65 18.11,22.65 z" /><path
         id="path38"
         style="fill:#ffffff;fill-opacity:1;fill-rule:nonzero;stroke:none"
         d="m 850.938,565.281 86.07,33.969 V 481.48 c 0,0 -317.098,-314.832 -332.949,-326.16 -15.852,-11.32 -115.512,-86.0505 -142.688,0 -11.328,47.571 54.356,140.43 54.356,140.43 0,0 169.218,172.789 244.617,129.102 -18.121,-22.653 -108.719,-110.981 -108.719,-110.981 0,0 -67.953,18.117 -81.535,-18.121 -13.59,-36.238 22.609,-61.148 38.5,-56.621 15.898,4.531 38.5,6.812 56.625,24.922 18.121,18.109 181.195,181.187 181.195,181.187 l 4.528,120.043" /><path
         id="path40"
         style="fill:none;stroke:#211c1d;stroke-width:10;stroke-linecap:butt;stroke-linejoin:miter;stroke-miterlimit:10;stroke-dasharray:none;stroke-opacity:1"
         d="m 850.938,565.281 86.07,33.969 V 481.48 c 0,0 -317.098,-314.832 -332.949,-326.16 -15.852,-11.32 -115.512,-86.0505 -142.688,0 -11.328,47.571 54.356,140.43 54.356,140.43 0,0 169.218,172.789 244.617,129.102 -18.121,-22.653 -108.719,-110.981 -108.719,-110.981 0,0 -67.953,18.117 -81.535,-18.121 -13.59,-36.238 22.609,-61.148 38.5,-56.621 15.898,4.531 38.5,6.812 56.625,24.922 18.121,18.109 181.195,181.187 181.195,181.187 z" /><path
         id="path42"
         style="fill:#ffffff;fill-opacity:1;fill-rule:nonzero;stroke:none"
         d="m 782.988,268.57 106.45,108.719 c 0,0 169.882,-86.07 228.762,-122.309 58.89,-36.242 385.04,-231.0112 781.4,-92.859 106.45,33.981 389.57,167.609 389.57,167.609 0,0 312.57,151.75 731.58,176.661 419.01,24.91 937.67,-88.332 1050.92,-305.77 33.97,-92.851 -67.94,-174.3905 -101.92,-187.9804 -33.97,-13.589819 -83.8,-15.85935 -113.24,52.0899 -9.06,40.7695 43.03,88.3285 43.03,88.3285 l 67.95,-49.821 c 0,0 56.63,-24.9177 22.64,27.184 -33.97,52.09 -276.32,212.898 -602.46,258.199 C 3061.51,433.922 2674.2,431.648 2307.29,268.57 1940.37,105.5 1643.66,-71.1602 1231.44,53.4102 1047.98,150.789 829.418,253.801 782.988,268.57" /><path
         id="path44"
         style="fill:none;stroke:#211c1d;stroke-width:10;stroke-linecap:butt;stroke-linejoin:miter;stroke-miterlimit:10;stroke-dasharray:none;stroke-opacity:1"
         d="m 782.988,268.57 106.45,108.719 c 0,0 169.882,-86.07 228.762,-122.309 58.89,-36.242 385.04,-231.0112 781.4,-92.859 106.45,33.981 389.57,167.609 389.57,167.609 0,0 312.57,151.75 731.58,176.661 419.01,24.91 937.67,-88.332 1050.92,-305.77 33.97,-92.851 -67.94,-174.3905 -101.92,-187.9804 -33.97,-13.589819 -83.8,-15.85935 -113.24,52.0899 -9.06,40.7695 43.03,88.3285 43.03,88.3285 l 67.95,-49.821 c 0,0 56.63,-24.9177 22.64,27.184 -33.97,52.09 -276.32,212.898 -602.46,258.199 C 3061.51,433.922 2674.2,431.648 2307.29,268.57 1940.37,105.5 1643.66,-71.1602 1231.44,53.4102 1047.98,150.789 829.418,253.801 782.988,268.57 Z" /></g></g></svg>